<svg width="80" height="98" viewBox="0 0 80 98" fill="none" xmlns="http://www.w3.org/2000/svg">
<path d="M70 41.4062V23.2812L56.7188 10H16.7188C14.8438 10 13.2292 10.6771 11.875 12.0312C10.625 13.2812 10 14.8438 10 16.7188V63.2812C10 65.1562 10.625 66.7708 11.875 68.125C13.2292 69.375 14.8438 70 16.7188 70H41.4062L70 41.4062ZM50 50C50 51.875 49.5312 53.5938 48.5938 55.1562C47.7604 56.6146 46.5625 57.8125 45 58.75C43.5417 59.5833 41.875 60 40 60C38.125 60 36.4062 59.5833 34.8438 58.75C33.3854 57.8125 32.1875 56.6146 31.25 55.1562C30.4167 53.5938 30 51.875 30 50C30 48.125 30.4167 46.4583 31.25 45C32.1875 43.4375 33.3854 42.2396 34.8438 41.4062C36.4062 40.4688 38.125 40 40 40C41.875 40 43.5417 40.4688 45 41.4062C46.5625 42.2396 47.7604 43.4375 48.5938 45C49.5312 46.4583 50 48.125 50 50ZM20 20H50V33.2812H20V20ZM66.5625 54.2188L72.5 60L55.9375 76.7188H50V70.7812L66.5625 54.2188ZM77.5 55L74.6875 57.8125L68.75 52.0312L71.5625 49.0625C71.875 48.75 72.2396 48.5938 72.6562 48.5938C73.1771 48.5938 73.5938 48.75 73.9062 49.0625L77.5 52.6562C77.8125 52.9688 77.9688 53.3854 77.9688 53.9062C77.9688 54.3229 77.8125 54.6875 77.5 55Z" fill="#F3F3F3"/>
<path d="M14.824 93.2C13.8107 93.2133 12.9307 93.0533 12.184 92.72C11.4373 92.3867 10.724 91.8867 10.044 91.22C9.97732 91.1667 9.91732 91.1 9.86398 91.02C9.82398 90.94 9.80398 90.8467 9.80398 90.74C9.80398 90.58 9.86398 90.4333 9.98398 90.3C10.1173 90.1667 10.264 90.1 10.424 90.1C10.584 90.1 10.7307 90.1667 10.864 90.3C11.384 90.86 11.9707 91.2867 12.624 91.58C13.2907 91.8733 14.004 92.02 14.764 92.02C15.404 92.02 15.9707 91.92 16.464 91.72C16.9707 91.52 17.3707 91.2333 17.664 90.86C17.9573 90.4867 18.104 90.0533 18.104 89.56C18.104 88.9467 17.9373 88.4533 17.604 88.08C17.2707 87.6933 16.8307 87.38 16.284 87.14C15.7373 86.8867 15.1307 86.66 14.464 86.46C13.9173 86.3 13.3973 86.12 12.904 85.92C12.4107 85.7067 11.9707 85.4533 11.584 85.16C11.1973 84.8533 10.8973 84.48 10.684 84.04C10.4707 83.6 10.364 83.0667 10.364 82.44C10.364 81.7333 10.5507 81.1067 10.924 80.56C11.2973 80.0133 11.824 79.5867 12.504 79.28C13.1973 78.96 13.9973 78.8 14.904 78.8C15.6907 78.8 16.444 78.9333 17.164 79.2C17.8973 79.4667 18.4773 79.86 18.904 80.38C19.104 80.5933 19.204 80.7867 19.204 80.96C19.204 81.0933 19.1373 81.2267 19.004 81.36C18.8707 81.4933 18.724 81.56 18.564 81.56C18.4307 81.56 18.3173 81.5133 18.224 81.42C17.9973 81.14 17.7107 80.8933 17.364 80.68C17.0173 80.4533 16.6307 80.28 16.204 80.16C15.7907 80.04 15.3573 79.98 14.904 79.98C14.2773 79.98 13.7107 80.08 13.204 80.28C12.7107 80.4667 12.3173 80.74 12.024 81.1C11.744 81.46 11.604 81.8933 11.604 82.4C11.604 82.96 11.764 83.42 12.084 83.78C12.404 84.14 12.824 84.44 13.344 84.68C13.864 84.9067 14.4173 85.12 15.004 85.32C15.5773 85.48 16.124 85.6667 16.644 85.88C17.1773 86.08 17.644 86.3333 18.044 86.64C18.4573 86.9467 18.7773 87.3333 19.004 87.8C19.244 88.2667 19.364 88.8533 19.364 89.56C19.364 90.24 19.1707 90.8533 18.784 91.4C18.3973 91.9467 17.864 92.38 17.184 92.7C16.5173 93.02 15.7307 93.1867 14.824 93.2ZM30.2745 82.78C30.4478 82.78 30.5878 82.84 30.6945 82.96C30.8145 83.08 30.8745 83.2267 30.8745 83.4V92.4C30.8745 92.56 30.8145 92.7 30.6945 92.82C30.5745 92.94 30.4345 93 30.2745 93C30.1011 93 29.9545 92.94 29.8345 92.82C29.7278 92.7 29.6745 92.56 29.6745 92.4V90.02L30.0145 89.86C30.0145 90.2333 29.9078 90.6133 29.6945 91C29.4945 91.3867 29.2145 91.7467 28.8545 92.08C28.4945 92.4133 28.0678 92.6867 27.5745 92.9C27.0945 93.1 26.5745 93.2 26.0145 93.2C25.1078 93.2 24.2945 92.9667 23.5745 92.5C22.8678 92.0333 22.3078 91.3933 21.8945 90.58C21.4945 89.7667 21.2945 88.8533 21.2945 87.84C21.2945 86.8 21.5011 85.8867 21.9145 85.1C22.3278 84.3 22.8878 83.6733 23.5945 83.22C24.3011 82.7667 25.1011 82.54 25.9945 82.54C26.5678 82.54 27.1011 82.64 27.5945 82.84C28.1011 83.04 28.5411 83.3133 28.9145 83.66C29.2878 84.0067 29.5745 84.4067 29.7745 84.86C29.9878 85.3 30.0945 85.76 30.0945 86.24L29.6745 85.94V83.4C29.6745 83.2267 29.7278 83.08 29.8345 82.96C29.9545 82.84 30.1011 82.78 30.2745 82.78ZM26.1145 92.08C26.8211 92.08 27.4478 91.9 27.9945 91.54C28.5411 91.1667 28.9678 90.66 29.2745 90.02C29.5945 89.3667 29.7545 88.64 29.7545 87.84C29.7545 87.0533 29.5945 86.3467 29.2745 85.72C28.9678 85.0933 28.5411 84.5933 27.9945 84.22C27.4478 83.8467 26.8211 83.66 26.1145 83.66C25.4211 83.66 24.7945 83.84 24.2345 84.2C23.6878 84.56 23.2545 85.0533 22.9345 85.68C22.6278 86.3067 22.4745 87.0267 22.4745 87.84C22.4745 88.64 22.6278 89.3667 22.9345 90.02C23.2545 90.66 23.6878 91.1667 24.2345 91.54C24.7811 91.9 25.4078 92.08 26.1145 92.08ZM35.3434 92.4C35.3434 92.56 35.2834 92.7 35.1634 92.82C35.0434 92.94 34.9034 93 34.7434 93C34.57 93 34.4234 92.94 34.3034 92.82C34.1967 92.7 34.1434 92.56 34.1434 92.4V78.8C34.1434 78.64 34.2034 78.5 34.3234 78.38C34.4434 78.26 34.5834 78.2 34.7434 78.2C34.9167 78.2 35.0567 78.26 35.1634 78.38C35.2834 78.5 35.3434 78.64 35.3434 78.8V92.4ZM37.8849 82.56C37.9916 82.56 38.0983 82.5933 38.2049 82.66C38.3116 82.7267 38.3916 82.8267 38.4449 82.96L41.9449 91.28L41.6849 91.44L45.2649 82.96C45.3716 82.6933 45.5649 82.5667 45.8449 82.58C45.9783 82.58 46.1049 82.6267 46.2249 82.72C46.3449 82.8 46.4049 82.92 46.4049 83.08C46.4049 83.16 46.3916 83.2267 46.3649 83.28C46.3516 83.32 46.3383 83.3667 46.3249 83.42L42.4049 92.62C42.2983 92.86 42.1183 92.9867 41.8649 93C41.7449 93.0133 41.6249 92.9867 41.5049 92.92C41.3983 92.84 41.3183 92.74 41.2649 92.62L37.3249 83.42C37.3116 83.3933 37.2983 83.3533 37.2849 83.3C37.2716 83.2467 37.2649 83.1933 37.2649 83.14C37.2649 82.9933 37.3183 82.86 37.4249 82.74C37.5316 82.62 37.6849 82.56 37.8849 82.56ZM57.0518 82.78C57.2251 82.78 57.3651 82.84 57.4718 82.96C57.5918 83.08 57.6518 83.2267 57.6518 83.4V92.4C57.6518 92.56 57.5918 92.7 57.4718 92.82C57.3518 92.94 57.2118 93 57.0518 93C56.8785 93 56.7318 92.94 56.6118 92.82C56.5051 92.7 56.4518 92.56 56.4518 92.4V90.02L56.7918 89.86C56.7918 90.2333 56.6851 90.6133 56.4718 91C56.2718 91.3867 55.9918 91.7467 55.6318 92.08C55.2718 92.4133 54.8451 92.6867 54.3518 92.9C53.8718 93.1 53.3518 93.2 52.7918 93.2C51.8851 93.2 51.0718 92.9667 50.3518 92.5C49.6451 92.0333 49.0851 91.3933 48.6718 90.58C48.2718 89.7667 48.0718 88.8533 48.0718 87.84C48.0718 86.8 48.2785 85.8867 48.6918 85.1C49.1051 84.3 49.6651 83.6733 50.3718 83.22C51.0785 82.7667 51.8785 82.54 52.7718 82.54C53.3451 82.54 53.8785 82.64 54.3718 82.84C54.8785 83.04 55.3185 83.3133 55.6918 83.66C56.0651 84.0067 56.3518 84.4067 56.5518 84.86C56.7651 85.3 56.8718 85.76 56.8718 86.24L56.4518 85.94V83.4C56.4518 83.2267 56.5051 83.08 56.6118 82.96C56.7318 82.84 56.8785 82.78 57.0518 82.78ZM52.8918 92.08C53.5985 92.08 54.2251 91.9 54.7718 91.54C55.3185 91.1667 55.7451 90.66 56.0518 90.02C56.3718 89.3667 56.5318 88.64 56.5318 87.84C56.5318 87.0533 56.3718 86.3467 56.0518 85.72C55.7451 85.0933 55.3185 84.5933 54.7718 84.22C54.2251 83.8467 53.5985 83.66 52.8918 83.66C52.1985 83.66 51.5718 83.84 51.0118 84.2C50.4651 84.56 50.0318 85.0533 49.7118 85.68C49.4051 86.3067 49.2518 87.0267 49.2518 87.84C49.2518 88.64 49.4051 89.3667 49.7118 90.02C50.0318 90.66 50.4651 91.1667 51.0118 91.54C51.5585 91.9 52.1851 92.08 52.8918 92.08ZM61.4007 93C61.214 93 61.0674 92.94 60.9607 92.82C60.854 92.7 60.8007 92.56 60.8007 92.4V83.44C60.8007 83.28 60.854 83.14 60.9607 83.02C61.0807 82.9 61.2274 82.84 61.4007 82.84C61.574 82.84 61.714 82.9 61.8207 83.02C61.9407 83.14 62.0007 83.28 62.0007 83.44V86.44L61.7007 86.5C61.7407 86.0333 61.854 85.5733 62.0407 85.12C62.2407 84.6533 62.5074 84.2267 62.8407 83.84C63.174 83.4533 63.5674 83.14 64.0207 82.9C64.4874 82.66 65.0074 82.54 65.5807 82.54C65.8207 82.54 66.054 82.5933 66.2807 82.7C66.5074 82.7933 66.6207 82.9533 66.6207 83.18C66.6207 83.38 66.5674 83.5333 66.4607 83.64C66.354 83.7467 66.2274 83.8 66.0807 83.8C65.9607 83.8 65.8274 83.7667 65.6807 83.7C65.5474 83.6333 65.3674 83.6 65.1407 83.6C64.7674 83.6 64.394 83.7133 64.0207 83.94C63.6474 84.1533 63.3074 84.4467 63.0007 84.82C62.694 85.1933 62.4474 85.6133 62.2607 86.08C62.0874 86.5333 62.0007 86.9933 62.0007 87.46V92.4C62.0007 92.56 61.9407 92.7 61.8207 92.82C61.7007 92.94 61.5607 93 61.4007 93Z" fill="white"/>
</svg>
